<svg width="65" height="64" viewBox="0 0 65 64" fill="none" xmlns="http://www.w3.org/2000/svg">
<g clip-path="url(#clip0_20_3105)">
<path d="M64.1875 49.5898C61.8595 50.1818 60.4195 49.6158 59.1275 47.6758L49.9395 34.9638L48.6115 33.2038L37.8815 47.7178C36.6555 49.4638 35.3695 50.2238 33.0815 49.6058L46.8215 31.1618L34.0295 14.5018C36.2295 14.0738 37.7495 14.2918 39.0995 16.2618L48.6295 29.1318L58.2295 16.3318C59.4595 14.5858 60.7815 13.9218 62.9895 14.5658L58.0295 21.1418L51.3095 29.8918C50.5095 30.8918 50.6195 31.5758 51.3555 32.5418L64.1875 49.5898ZM0.2035 30.8538L1.3275 25.3258C4.3875 14.3858 16.9275 9.83977 25.5755 16.5998C30.6295 20.5758 31.8855 26.1998 31.6355 32.4998H3.1475C2.7195 43.8398 10.8815 50.6838 21.2875 47.1918C24.9375 45.9658 27.0875 43.1078 28.1635 39.5318C28.7095 37.7398 29.6135 37.4598 31.2975 37.9718C30.4375 42.4438 28.4975 46.1798 24.3975 48.5178C18.2715 52.0178 9.5275 50.8858 4.9275 46.0218C2.1875 43.1998 1.0555 39.6238 0.5475 35.7998C0.4675 35.1678 0.3075 34.5658 0.1875 33.9598C0.198167 32.9251 0.2035 31.8904 0.2035 30.8558V30.8538ZM3.1995 30.0938H28.9435C28.7755 21.8938 23.6695 16.0698 16.6915 16.0198C9.0315 15.9598 3.5315 21.6458 3.1995 30.0938Z" fill="black"/>
</g>
<defs>
<clipPath id="clip0_20_3105">
<rect width="64" height="64" fill="white" transform="translate(0.1875)"/>
</clipPath>
</defs>
</svg>
