<svg width="44" height="64" viewBox="0 0 44 64" fill="none" xmlns="http://www.w3.org/2000/svg">
<g clip-path="url(#clip0_20_3137)">
<path d="M22.0259 32.0002C22.0259 29.1712 23.1497 26.4581 25.1501 24.4577C27.1505 22.4573 29.8636 21.3335 32.6925 21.3335C35.5215 21.3335 38.2346 22.4573 40.235 24.4577C42.2354 26.4581 43.3592 29.1712 43.3592 32.0002C43.3592 34.8291 42.2354 37.5422 40.235 39.5426C38.2346 41.543 35.5215 42.6668 32.6925 42.6668C29.8636 42.6668 27.1505 41.543 25.1501 39.5426C23.1497 37.5422 22.0259 34.8291 22.0259 32.0002Z" fill="#1ABCFE"/>
<path d="M0.692383 53.3332C0.692383 50.5042 1.81619 47.7911 3.81658 45.7907C5.81697 43.7903 8.53007 42.6665 11.359 42.6665H22.0257V53.3332C22.0257 56.1621 20.9019 58.8753 18.9015 60.8756C16.9011 62.876 14.188 63.9998 11.359 63.9998C8.53007 63.9998 5.81697 62.876 3.81658 60.8756C1.81619 58.8753 0.692383 56.1621 0.692383 53.3332Z" fill="#0ACF83"/>
<path d="M22.0259 0V21.3333H32.6925C35.5215 21.3333 38.2346 20.2095 40.235 18.2091C42.2354 16.2087 43.3592 13.4956 43.3592 10.6667C43.3592 7.83769 42.2354 5.12458 40.235 3.12419C38.2346 1.12381 35.5215 0 32.6925 0L22.0259 0Z" fill="#FF7262"/>
<path d="M0.692383 10.6667C0.692383 13.4956 1.81619 16.2087 3.81658 18.2091C5.81697 20.2095 8.53007 21.3333 11.359 21.3333H22.0257V0H11.359C8.53007 0 5.81697 1.12381 3.81658 3.12419C1.81619 5.12458 0.692383 7.83769 0.692383 10.6667Z" fill="#F24E1E"/>
<path d="M0.692383 32.0002C0.692383 34.8291 1.81619 37.5422 3.81658 39.5426C5.81697 41.543 8.53007 42.6668 11.359 42.6668H22.0257V21.3335H11.359C8.53007 21.3335 5.81697 22.4573 3.81658 24.4577C1.81619 26.4581 0.692383 29.1712 0.692383 32.0002Z" fill="#A259FF"/>
</g>
<defs>
<clipPath id="clip0_20_3137">
<rect width="42.6667" height="64" fill="white" transform="translate(0.692383)"/>
</clipPath>
</defs>
</svg>
