<svg width="57" height="64" viewBox="0 0 57 64" fill="none" xmlns="http://www.w3.org/2000/svg">
<g clip-path="url(#clip0_20_3100)">
<path d="M28.9132 64C28.0552 64 27.2545 63.7668 26.5109 63.3586L18.9036 58.7517C17.7596 58.1102 18.3316 57.877 18.6748 57.7603C20.2191 57.2355 20.5051 57.1189 22.1067 56.1859C22.2782 56.0692 22.507 56.1275 22.6786 56.2442L28.5128 59.8014C28.7416 59.918 29.0276 59.918 29.1992 59.8014L52.0211 46.3307C52.2499 46.214 52.3643 45.9808 52.3643 45.6892V18.806C52.3643 18.5145 52.2499 18.2812 52.0211 18.1646L29.1992 4.75223C28.9704 4.63561 28.6844 4.63561 28.5128 4.75223L5.69085 18.1646C5.46207 18.2812 5.34766 18.5728 5.34766 18.806V45.6892C5.34766 45.9224 5.46207 46.214 5.69085 46.3307L11.9254 50.0045C15.3001 51.7539 17.4164 49.7129 17.4164 47.6719V21.1386C17.4164 20.7888 17.7024 20.4389 18.1028 20.4389H21.0199C21.3631 20.4389 21.7062 20.7305 21.7062 21.1386V47.6719C21.7062 52.2788 19.2467 54.9613 14.9569 54.9613C13.6414 54.9613 12.6118 54.9613 9.69468 53.5034L3.68893 50.0045C2.20179 49.1297 1.28662 47.4969 1.28662 45.7475V18.8644C1.28662 17.115 2.20179 15.4822 3.68893 14.6074L26.5109 1.13672C27.9409 0.320313 29.8856 0.320313 31.3155 1.13672L54.1374 14.6074C55.6246 15.4822 56.5398 17.115 56.5398 18.8644V45.7475C56.5398 47.4969 55.6246 49.1297 54.1374 50.0045L31.3155 63.4752C30.6291 63.7668 29.7712 64 28.9132 64Z" fill="#5FA04E"/>
<path d="M36.0058 45.5143C25.9961 45.5143 23.937 40.8491 23.937 36.8837C23.937 36.5339 24.223 36.184 24.6233 36.184H27.5977C27.9408 36.184 28.2269 36.4172 28.2269 36.7671C28.6844 39.8577 30 41.374 36.0629 41.374C40.8675 41.374 42.9267 40.266 42.9267 37.6418C42.9267 36.1256 42.3547 35.0176 34.8617 34.2595C28.6272 33.6181 24.7378 32.2186 24.7378 27.1451C24.7378 22.4216 28.6272 19.6226 35.1478 19.6226C42.4691 19.6226 46.0725 22.1884 46.5301 27.7866C46.5301 27.9616 46.4729 28.1365 46.3586 28.3115C46.2442 28.4281 46.0725 28.5447 45.9009 28.5447H42.8695C42.5835 28.5447 42.2975 28.3115 42.2403 28.0198C41.5539 24.8126 39.7808 23.7629 35.0906 23.7629C29.8283 23.7629 29.1992 25.629 29.1992 27.0285C29.1992 28.7196 29.9428 29.2445 37.0353 30.1775C44.0706 31.1106 47.3881 32.4518 47.3881 37.4669C47.3881 42.5986 43.2127 45.5143 36.0058 45.5143Z" fill="#5FA04E"/>
</g>
<defs>
<clipPath id="clip0_20_3100">
<rect width="56.32" height="64" fill="white" transform="translate(0.653809)"/>
</clipPath>
</defs>
</svg>
