<svg width="71" height="64" viewBox="0 0 71 64" fill="none" xmlns="http://www.w3.org/2000/svg">
<g clip-path="url(#clip0_20_3082)">
<path d="M35.6572 38.7725C39.3295 38.7725 42.3065 35.7404 42.3065 32C42.3065 28.2597 39.3295 25.2275 35.6572 25.2275C31.9848 25.2275 29.0078 28.2597 29.0078 32C29.0078 35.7404 31.9848 38.7725 35.6572 38.7725Z" fill="#087EA4"/>
<path d="M35.6569 47.2379C54.0186 47.2379 68.9037 40.4156 68.9037 31.9998C68.9037 23.584 54.0186 16.7617 35.6569 16.7617C17.2952 16.7617 2.41016 23.584 2.41016 31.9998C2.41016 40.4156 17.2952 47.2379 35.6569 47.2379Z" stroke="#087EA4" stroke-width="3"/>
<path d="M22.7003 39.619C31.8812 55.8152 45.1246 65.5336 52.2803 61.3257C59.4361 57.1178 57.7944 40.5771 48.6136 24.3809C39.4328 8.18475 26.1893 -1.53366 19.0336 2.67422C11.8778 6.88211 13.5195 23.4228 22.7003 39.619Z" stroke="#087EA4" stroke-width="3"/>
<path d="M22.7002 24.3811C13.5193 40.5772 11.8777 57.118 19.0334 61.3259C26.1892 65.5337 39.4326 55.8153 48.6134 39.6192C57.7943 23.423 59.4359 6.88229 52.2802 2.67441C45.1244 -1.53348 31.881 8.18494 22.7002 24.3811Z" stroke="#087EA4" stroke-width="3"/>
</g>
<defs>
<clipPath id="clip0_20_3082">
<rect width="69.8182" height="64" fill="white" transform="translate(0.748047)"/>
</clipPath>
</defs>
</svg>
